<svg xmlns="http://www.w3.org/2000/svg" version="1.1" xmlns:xlink="http://www.w3.org/1999/xlink" xmlns:svgjs="http://svgjs.dev/svgjs" width="1500" height="1500" viewBox="0 0 1500 1500"><rect width="1500" height="1500" fill="#ffffff"></rect><g transform="matrix(0.6666666666666666,0,0,0.6666666666666666,249.50000000000006,249.50050917854492)"><svg viewBox="0 0 280 280" data-background-color="#d67b39" preserveAspectRatio="xMidYMid meet" height="1500" width="1500" xmlns="http://www.w3.org/2000/svg" xmlns:xlink="http://www.w3.org/1999/xlink"><g id="tight-bounds" transform="matrix(1,0,0,1,0.13999999999998636,0.13985743000742445)"><svg viewBox="0 0 279.72 279.72" height="279.72" width="279.72"><g><svg viewBox="0 0 279.72 279.72" height="279.72" width="279.72"><g><svg viewBox="0 0 279.72 279.72" height="279.72" width="279.72"><g id="textblocktransform"><svg viewBox="0 0 279.72 279.72" height="279.72" width="279.72" id="textblock"><g><svg viewBox="0 0 279.72 279.72" height="279.72" width="279.72"><g transform="matrix(1,0,0,1,79.60717673945298,73.92936372216631)"><svg viewBox="0 0 120.50564652109406 131.8612725556674" height="131.8612725556674" width="120.50564652109406"><g id="icon-0"><svg xmlns="http://www.w3.org/2000/svg" xmlns:xlink="http://www.w3.org/1999/xlink" version="1.1" x="0" y="0" viewBox="4.783120335754787 1.1543043753079467 90.48409481805783 99.01069562469205" enable-background="new 0 0 100 100" xml:space="preserve" width="120.50564652109406" height="131.8612725556674" class="icon-xg-0" data-fill-palette-color="accent" id="xg-0"><path d="M74.823 55.914c-0.282-0.288-0.669-0.45-1.072-0.45-11.398 0-12.081 0-16.173 7.806-0.232 0.442-0.229 0.972 0.01 1.411 0.237 0.439 0.679 0.731 1.177 0.778 0.026 0.003 0.669 0.062 1.642 0.062 2.48 0 7.036-0.395 9.673-3.038 1.043-1.046 1.686-2.319 1.917-3.795 0.097-0.008 0.189-0.017 0.274-0.023 1.776-0.151 2.95-0.251 2.98-1.669C75.259 56.593 75.105 56.203 74.823 55.914z" fill="#000000" data-fill-palette-color="accent"></path><path d="M42.422 63.27c-4.092-7.806-4.774-7.806-16.173-7.806-0.403 0-0.79 0.162-1.072 0.45-0.282 0.289-0.437 0.679-0.428 1.082 0.03 1.417 1.204 1.518 2.98 1.669 0.084 0.007 0.178 0.016 0.274 0.023 0.232 1.478 0.875 2.749 1.917 3.795 2.637 2.644 7.192 3.038 9.673 3.038 0 0 0 0 0 0 0.972 0 1.614-0.06 1.641-0.062 0.498-0.047 0.938-0.339 1.177-0.778S42.654 63.712 42.422 63.27z" fill="#000000" data-fill-palette-color="accent"></path><path d="M91.602 2.6C89.618 0.617 85.9 0.676 80.847 2.769 71.742 6.541 59.53 16.797 56.902 27.708c-2.173-0.196-4.464-0.312-6.902-0.312-2.439 0-4.73 0.116-6.903 0.312C40.469 16.796 28.257 6.54 19.151 2.768 14.099 0.676 10.381 0.616 8.399 2.6 4.939 6.06 4.4 15.517 4.989 22.565c0.715 8.546 3.034 15.947 6.327 20.428-0.384 4.433-1.589 21.316 1.782 26.772 3.64 5.89 17.941 11.999 21.88 13.596-0.038 2.791 0.092 9.178 1.93 11.728 2.554 3.543 9.905 5.076 13.092 5.076 3.188 0 10.54-1.533 13.092-5.076 1.84-2.551 1.96-8.985 1.918-11.795 3.951-1.586 18.252-7.64 21.893-13.528 3.372-5.456 2.166-22.344 1.782-26.773C96.241 32.681 97.399 8.397 91.602 2.6zM85.027 44.801c0.23 0.23 0.521 0.343 0.818 0.393 0.486 6.944 0.811 19.261-1.496 22.993C81.7 72.474 70.89 77.617 65 80.06v-6.631c0-0.828-0.672-1.5-1.5-1.5s-1.5 0.672-1.5 1.5V82v1 0.82c0 0.044 0.01 0.086 0.013 0.129 0.001 3.531-0.373 8.023-1.354 9.385-1.239 1.72-5.038 3.068-8.168 3.592 1.58-1.46 3.199-3.74 3.199-5.684 0-3.143-2.547-4.205-5.689-4.205-3.142 0-5.69 1.062-5.69 4.205 0 1.943 1.624 4.225 3.204 5.684-3.13-0.522-6.932-1.871-8.172-3.592-0.976-1.354-1.357-5.785-1.365-9.283C37.988 83.976 38 83.899 38 83.82v-1.359c0-0.018 0.001-0.037 0.001-0.055 0-0.004-0.001-0.008-0.001-0.012v-8.966c0-0.828-0.671-1.5-1.5-1.5s-1.5 0.672-1.5 1.5v6.699c-5.885-2.464-16.699-7.651-19.351-11.94-2.305-3.73-1.98-16.049-1.495-22.994 0.298-0.05 0.589-0.163 0.819-0.393 0.586-0.585 0.586-1.536 0-2.121-3.615-3.616-6.23-11.229-6.994-20.365C7.306 14.266 8.375 6.867 10.52 4.721c0.744-0.744 3.148-0.977 7.483 0.819 9.48 3.927 22.613 15.259 22.613 26.325 0 0.829 0.671 1.5 1.5 1.5s1.5-0.671 1.5-1.5c0-0.396-0.015-0.791-0.044-1.186 2.025-0.18 4.162-0.283 6.427-0.283s4.401 0.104 6.427 0.283c-0.028 0.395-0.044 0.791-0.044 1.186 0 0.829 0.672 1.5 1.5 1.5s1.5-0.671 1.5-1.5c0-11.064 13.132-22.397 22.612-26.324 4.332-1.795 6.741-1.563 7.485-0.819 4.514 4.514 3.607 29.897-4.453 37.958C84.441 43.266 84.441 44.215 85.027 44.801z" fill="#000000" data-fill-palette-color="accent"></path></svg></g></svg></g><g id="text-0"><path d="M30.897 109.981l-1.727-0.852c0.179-1.285 0.111-2.213-0.204-2.784-0.313-0.577-1.016-1.053-2.108-1.429v0l-16.429-5.686c-0.834-0.286-1.425-0.383-1.775-0.289-0.358 0.098-0.636 0.434-0.834 1.008v0c-0.089 0.259-0.167 0.526-0.233 0.8-0.058 0.27-0.105 0.457-0.142 0.563v0l-0.183 0.02-1.63-0.861c0.141-0.331 0.402-1.008 0.781-2.031 0.379-1.023 0.78-2.149 1.202-3.378v0c1.765-5.138 2.87-8.856 3.314-11.154v0l0.273-0.041c0.144 0.084 0.483 0.283 1.017 0.598 0.534 0.315 1.288 0.712 2.263 1.192 0.974 0.48 1.983 0.94 3.025 1.381v0l-0.488 1.935c-0.13-0.045-0.372-0.142-0.729-0.292-0.356-0.15-0.704-0.283-1.043-0.4v0c-0.914-0.314-1.585-0.42-2.013-0.319-0.428 0.101-0.818 0.472-1.169 1.111-0.349 0.633-0.815 1.798-1.398 3.496v0c-0.314 0.914-0.505 1.549-0.572 1.906-0.061 0.359-0.014 0.623 0.141 0.794 0.162 0.173 0.497 0.361 1.008 0.564v0l8.154 3.154 1.425-4.026c0.17-0.494 0.361-1.243 0.575-2.246 0.216-1.01 0.352-1.678 0.409-2.004v0l0.249-0.09 2.155 1.352c-0.141 0.331-0.384 0.956-0.726 1.873-0.343 0.918-0.69 1.886-1.04 2.905v0c-0.331 0.963-0.586 1.998-0.766 3.103v0l6.449 2.392c1.068 0.367 1.819 0.494 2.251 0.38 0.433-0.114 0.766-0.51 0.999-1.19v0c0.178-0.519 0.345-1.065 0.502-1.64 0.15-0.577 0.261-0.97 0.333-1.18v0l0.183-0.02 1.722 0.985c-0.167 0.405-0.467 1.169-0.901 2.29-0.427 1.124-0.847 2.284-1.259 3.483v0c-0.278 0.809-0.513 1.705-0.706 2.688-0.193 0.983-0.311 1.629-0.355 1.939z" fill="#000000" data-fill-palette-color="primary"></path><path d="M30.407 74.261c-1.232-0.836-2.134-0.832-2.706 0.01v0c-0.11 0.162-0.209 0.343-0.297 0.544-0.092 0.206-0.141 0.342-0.148 0.409v0l-1.179-1.001c0.47-0.983 0.932-2.071 1.385-3.262 0.459-1.188 0.761-1.965 0.908-2.332v0l0.556 0.07c0.44 0.63 1.649 1.75 3.626 3.36 1.972 1.606 3.952 3.084 5.941 4.433v0c2.237 1.518 3.975 1.364 5.214-0.462v0c0.466-0.686 0.735-1.438 0.809-2.257 0.07-0.813 0.086-1.883 0.048-3.21v0l-7.943-5.39c-0.686-0.466-1.249-0.666-1.687-0.601-0.448 0.067-0.888 0.419-1.321 1.057v0l-0.523 0.841-1.144-0.966c0.547-1.097 1.076-2.272 1.588-3.526 0.517-1.251 0.849-2.059 0.995-2.426v0l0.557 0.069c0.381 0.566 1.687 1.713 3.916 3.439 2.23 1.726 4.714 3.519 7.454 5.378v0c0.502 0.341 0.976 0.481 1.42 0.419 0.448-0.067 0.818-0.317 1.112-0.749v0c0.216-0.319 0.364-0.676 0.443-1.072 0.085-0.392 0.126-0.732 0.123-1.018-0.003-0.286-0.014-0.467-0.034-0.544v0l0.876-0.104c0.076 0.178 0.217 0.581 0.422 1.21 0.214 0.627 0.376 1.301 0.486 2.022 0.106 0.727 0.044 1.261-0.187 1.601v0c-1.254 1.848-2.87 2.235-4.848 1.162v0l-0.18 0.126c0.099 1.669 0.114 3.123 0.045 4.363-0.07 1.231-0.215 2.009-0.434 2.333v0c-0.99 1.459-2.096 2.35-3.318 2.673-1.222 0.323-2.47 0.052-3.745-0.813v0z" fill="#000000" data-fill-palette-color="primary"></path><path d="M65.967 54.711c-1.938 1.761-4.046 2.557-6.327 2.389-2.276-0.164-4.351-1.278-6.226-3.341v0c-1.318-1.45-2.207-3.054-2.669-4.814-0.462-1.76-0.468-3.471-0.019-5.132 0.449-1.661 1.335-3.093 2.66-4.297v0c0.57-0.518 1.158-0.978 1.764-1.379 0.606-0.401 1.12-0.709 1.542-0.925 0.422-0.216 0.693-0.339 0.815-0.37v0l0.278 0.131c0.073 0.119 0.237 0.411 0.492 0.876 0.251 0.46 0.609 1.048 1.074 1.764 0.461 0.711 1.004 1.435 1.63 2.172v0l-1.168 1.234-0.864-0.95c-0.685-0.754-1.466-1.152-2.342-1.193-0.876-0.042-1.691 0.28-2.445 0.965v0c-1.247 1.133-1.804 2.447-1.671 3.942 0.132 1.504 0.94 3.073 2.424 4.706v0c1.616 1.778 3.264 2.844 4.944 3.196 1.689 0.353 3.176-0.054 4.461-1.222v0c0.507-0.461 0.947-1.002 1.318-1.622 0.372-0.62 0.663-1.163 0.875-1.63 0.203-0.466 0.316-0.768 0.342-0.906v0l0.247-0.106 1.197 0.647c-0.048 0.229-0.166 0.725-0.355 1.487-0.18 0.763-0.443 1.581-0.79 2.452-0.342 0.876-0.738 1.518-1.187 1.926z" fill="#000000" data-fill-palette-color="primary"></path><path d="M78.115 42.952c0.665-0.446 1.06-0.891 1.185-1.336 0.125-0.445 0.005-1.007-0.36-1.685v0l-10.409-19.403c-0.352-0.656-0.719-1.078-1.102-1.265-0.382-0.188-0.806-0.156-1.272 0.094v0l-0.76 0.407-0.202-0.025-0.483-1.252c0.77-0.539 1.624-1.193 2.56-1.963 0.939-0.763 1.696-1.425 2.269-1.984v0l0.471 0.359c-0.025 0.354 0.509 1.743 1.601 4.165 1.095 2.414 2.507 5.35 4.237 8.808v0c1.755-3.387 3.069-5.315 3.944-5.783v0c1.577-0.846 3.024-1.089 4.343-0.73 1.325 0.356 2.384 1.274 3.177 2.752v0c0.262 0.489 0.777 1.655 1.543 3.497v0c1.309 2.965 2.146 4.788 2.51 5.466v0c0.377 0.702 0.751 1.164 1.123 1.388 0.375 0.229 0.792 0.22 1.252-0.028v0l1.236-0.763 0.148 0.11 0.549 1.728c-1.645 0.786-2.747 1.329-3.305 1.629v0c-0.972 0.522-2.145 1.34-3.519 2.455v0l-0.659-1.581c0.629-0.582 1-1.148 1.113-1.697 0.116-0.544 0.004-1.132-0.336-1.765v0l-3.66-7.34c-0.651-1.214-1.415-2.009-2.29-2.383-0.876-0.375-1.799-0.302-2.772 0.22v0c-0.604 0.324-1.249 0.918-1.934 1.782-0.676 0.867-1.216 1.767-1.618 2.702v0c1.385 2.762 2.933 5.736 4.643 8.924v0c0.404 0.754 0.786 1.231 1.146 1.431 0.359 0.2 0.781 0.17 1.264-0.089v0l1.235-0.763 0.148 0.109 0.515 1.747c-1.715 0.824-2.839 1.379-3.375 1.666v0c-1.047 0.562-2.237 1.23-3.57 2.005v0z" fill="#000000" data-fill-palette-color="primary"></path><path d="M111.545 30.806c-0.858 0.228-1.657 0.376-2.395 0.445-0.739 0.068-1.324 0.089-1.757 0.061-0.434-0.033-0.712-0.061-0.833-0.082v0l-0.198-0.252c-0.024-0.419-0.149-1.271-0.376-2.555-0.225-1.278-0.414-2.255-0.566-2.931v0l1.348-0.571c0.468 1.761 1.091 2.923 1.869 3.486 0.778 0.563 1.871 0.658 3.278 0.284v0c1.016-0.27 1.811-0.725 2.385-1.363 0.573-0.639 0.772-1.29 0.595-1.953v0c-0.178-0.669-0.654-1.191-1.429-1.565-0.771-0.383-2.205-0.823-4.304-1.319v0c-1.727-0.372-3.044-0.866-3.951-1.483-0.906-0.611-1.487-1.399-1.743-2.364v0c-0.284-1.066-0.222-2.117 0.186-3.151 0.414-1.036 1.114-1.948 2.099-2.737 0.991-0.797 2.18-1.38 3.569-1.75v0c0.637-0.169 1.262-0.285 1.874-0.346 0.612-0.061 1.118-0.088 1.519-0.079 0.401 0.008 0.658 0.011 0.773 0.007v0l0.138 0.176c0.014 0.28 0.055 0.918 0.123 1.913 0.062 0.997 0.198 2.055 0.409 3.175v0l-1.447 0.506c-0.02-0.076-0.049-0.237-0.088-0.483-0.039-0.247-0.086-0.477-0.143-0.691v0c-0.255-0.959-0.7-1.591-1.335-1.896-0.635-0.304-1.527-0.304-2.675 0.002v0c-0.909 0.242-1.618 0.66-2.129 1.255-0.512 0.589-0.686 1.193-0.522 1.811v0c0.169 0.637 0.6 1.165 1.292 1.582 0.698 0.416 1.744 0.779 3.138 1.092v0c2.464 0.575 4.194 1.149 5.191 1.721 0.999 0.579 1.632 1.373 1.9 2.383v0c0.27 1.016 0.187 2.051-0.248 3.107-0.428 1.06-1.141 1.999-2.14 2.818-0.997 0.826-2.132 1.408-3.407 1.747z" fill="#000000" data-fill-palette-color="primary"></path><path d="M131.977 27.326l0.299-1.789c1.375-0.138 2.325-0.329 2.849-0.574 0.518-0.245 0.852-0.679 1.004-1.303 0.158-0.623 0.222-1.722 0.191-3.295v0l-0.348-18.038c-2.349 0.13-3.942 0.291-4.781 0.484-0.832 0.199-1.396 0.611-1.69 1.237-0.288 0.626-0.539 1.839-0.753 3.639v0l-1.946 0.205c0.282-2.631 0.442-5.021 0.479-7.171v0l0.366-0.34 3.446 0.384 12.829-0.247 3.506-0.518 0.379 0.326c0.128 2.257 0.382 4.584 0.761 6.98v0l-1.945 0.204c-0.335-1.816-0.663-3.04-0.982-3.675-0.313-0.627-0.859-1.028-1.64-1.202-0.774-0.181-2.266-0.306-4.474-0.375v0c-0.131 1.661-0.228 4.589-0.291 8.784-0.056 4.194-0.052 7.975 0.013 11.343v0c0.02 1.018 0.213 1.74 0.58 2.164 0.367 0.417 0.978 0.618 1.834 0.602v0c0.829-0.016 1.589-0.073 2.279-0.172v0l0.121 0.164-0.336 1.917-1.362-0.022-4.721 0.012c-1.515 0.029-3.404 0.121-5.667 0.276z" fill="#000000" data-fill-palette-color="primary"></path><path d="M158.776 26.723c0.83 0.082 1.424-0.074 1.784-0.467 0.365-0.386 0.677-1.215 0.935-2.488v0l1.811-8.917c0.182-0.896 0.19-1.557 0.024-1.985-0.166-0.427-0.522-0.696-1.066-0.806v0c-0.218-0.044-0.403-0.068-0.555-0.072-0.152-0.004-0.261 0.004-0.325 0.024v0l-0.143-0.329 0.381-1.232c1.063 0.016 2.197 0.007 3.403-0.029 1.206-0.035 1.978-0.061 2.315-0.079v0l0.238 0.308c-0.107 0.231-0.304 0.774-0.591 1.629-0.28 0.856-0.488 1.68-0.622 2.472v0l0.14 0.149c1.064-1.103 2.228-1.949 3.494-2.539 1.259-0.59 2.292-0.804 3.098-0.64v0c0.384 0.078 0.671 0.16 0.86 0.245 0.197 0.08 0.318 0.138 0.364 0.174v0l0.092 0.188c-0.128 0.367-0.407 1.15-0.837 2.349-0.422 1.194-0.75 2.3-0.984 3.318v0l-1.609-0.197c0.225-1.107 0.301-1.858 0.228-2.252-0.079-0.396-0.334-0.637-0.763-0.725v0c-0.595-0.121-1.283-0.001-2.062 0.361-0.78 0.361-1.536 0.904-2.269 1.628v0c-0.192 0.781-0.51 2.069-0.955 3.864-0.451 1.794-0.802 3.242-1.052 4.343v0c-0.187 0.921-0.179 1.569 0.025 1.944 0.202 0.381 0.684 0.649 1.446 0.804v0c0.352 0.071 0.706 0.13 1.063 0.176 0.351 0.045 0.597 0.081 0.738 0.11v0l0.005 0.171-0.726 1.701c-0.269-0.055-0.807-0.177-1.614-0.368-0.807-0.191-1.643-0.374-2.507-0.549v0c-1.005-0.204-1.914-0.369-2.728-0.494-0.822-0.12-1.344-0.19-1.567-0.208v0z" fill="#000000" data-fill-palette-color="primary"></path><path d="M188.504 22.077c0.64-1.344 0.5-2.235-0.42-2.673v0c-0.177-0.084-0.371-0.155-0.583-0.212-0.217-0.06-0.36-0.088-0.426-0.084v0l0.811-1.317c1.043 0.316 2.188 0.607 3.434 0.875 1.244 0.274 2.058 0.455 2.442 0.544v0l0.016 0.56c-0.556 0.531-1.48 1.895-2.772 4.094-1.289 2.192-2.45 4.373-3.483 6.543v0c-1.161 2.441-0.746 4.136 1.248 5.084v0c0.749 0.356 1.533 0.509 2.352 0.458 0.814-0.054 1.874-0.2 3.181-0.439v0l4.124-8.668c0.356-0.749 0.469-1.335 0.338-1.759-0.134-0.433-0.549-0.814-1.244-1.145v0l-0.91-0.39 0.781-1.277c1.167 0.374 2.409 0.72 3.726 1.036 1.315 0.322 2.164 0.527 2.549 0.616v0l0.015 0.56c-0.502 0.463-1.437 1.927-2.805 4.393-1.368 2.466-2.764 5.193-4.187 8.182v0c-0.261 0.548-0.327 1.037-0.199 1.467 0.134 0.433 0.437 0.761 0.909 0.986v0c0.348 0.166 0.724 0.258 1.127 0.275 0.401 0.024 0.742 0.013 1.024-0.033 0.282-0.046 0.46-0.085 0.533-0.115v0l0.235 0.849c-0.164 0.103-0.542 0.303-1.131 0.601-0.587 0.306-1.229 0.569-1.926 0.787-0.703 0.215-1.24 0.235-1.611 0.057v0c-2.017-0.96-2.644-2.498-1.882-4.616v0l-0.152-0.159c-1.635 0.35-3.07 0.586-4.306 0.707-1.227 0.117-2.018 0.092-2.372-0.077v0c-1.592-0.757-2.64-1.715-3.145-2.874-0.505-1.158-0.426-2.433 0.237-3.825v0z" fill="#000000" data-fill-palette-color="primary"></path><path d="M200.661 56.099l1.19-1.099c0.52 0.325 0.945 0.519 1.275 0.583 0.329 0.054 0.66-0.03 0.992-0.254 0.333-0.224 0.757-0.644 1.273-1.259v0c0.742-0.886 1.39-1.638 1.943-2.257v0l2.528-2.955 7.921-9.451c0.604-0.721 0.91-1.32 0.919-1.798 0.004-0.482-0.279-0.963-0.85-1.441v0l-0.345-0.289 0.009-0.21 0.972-0.961c1.032 0.609 2.082 1.191 3.15 1.745 1.069 0.555 1.755 0.905 2.06 1.05v0l-0.018 0.418c-0.113 0.084-0.351 0.272-0.715 0.564-0.369 0.287-0.716 0.58-1.043 0.877v0l-0.061 0.332c3.14 0.289 4.943 0.628 5.409 1.019v0c1.206 1.011 2.04 2.187 2.5 3.527 0.461 1.341 0.519 2.731 0.173 4.171-0.341 1.444-1.061 2.821-2.16 4.132v0c-1.258 1.501-2.778 2.583-4.56 3.245-1.781 0.671-3.589 0.877-5.425 0.617-1.835-0.26-3.461-0.984-4.877-2.171v0c-0.465-0.39-0.911-0.793-1.337-1.21-0.43-0.412-0.722-0.699-0.875-0.862v0l-2.7 3.297c-0.814 0.971-1.267 1.715-1.36 2.233-0.093 0.518 0.155 1.025 0.745 1.52v0l1.106 0.876-0.015 0.14-1.268 0.995-3.01-2.523c-0.761-0.638-1.491-1.194-2.192-1.67-0.696-0.481-1.147-0.791-1.354-0.931zM215.273 53.227c1.416 1.187 2.935 1.642 4.556 1.365 1.621-0.277 3.132-1.251 4.533-2.923v0c0.885-1.056 1.507-2.174 1.867-3.355 0.355-1.176 0.422-2.287 0.2-3.334-0.218-1.052-0.707-1.896-1.468-2.534v0c-0.425-0.357-1.063-0.648-1.912-0.875-0.859-0.226-1.756-0.339-2.693-0.34v0c-2.489 2.634-5.071 5.547-7.747 8.741v0c0.278 0.522 0.659 1.085 1.142 1.686 0.484 0.602 0.991 1.125 1.522 1.569z" fill="#000000" data-fill-palette-color="primary"></path><path d="M220.206 74.495l1.432-0.757c0.419 0.448 0.78 0.744 1.082 0.891 0.304 0.137 0.646 0.14 1.025 0.009 0.379-0.131 0.897-0.428 1.553-0.891v0c0.945-0.666 1.764-1.227 2.457-1.683v0l3.201-2.208 10.08-7.102c0.769-0.542 1.219-1.042 1.35-1.502 0.127-0.465-0.023-1.002-0.452-1.611v0l-0.259-0.368 0.063-0.2 1.186-0.68c0.841 0.853 1.707 1.685 2.597 2.495 0.89 0.81 1.464 1.325 1.722 1.543v0l-0.126 0.4c-0.131 0.052-0.409 0.173-0.836 0.361-0.43 0.183-0.841 0.377-1.232 0.581v0l-0.144 0.305c2.961 1.085 4.616 1.875 4.966 2.372v0c0.906 1.286 1.41 2.637 1.512 4.05 0.102 1.414-0.199 2.772-0.903 4.075-0.7 1.308-1.749 2.455-3.148 3.44v0c-1.601 1.128-3.348 1.784-5.24 1.967-1.894 0.192-3.694-0.073-5.401-0.795-1.707-0.722-3.093-1.839-4.157-3.349v0c-0.35-0.496-0.677-1.001-0.982-1.513-0.31-0.508-0.519-0.861-0.625-1.057v0l-3.454 2.494c-1.036 0.73-1.665 1.333-1.889 1.809-0.223 0.477-0.113 1.03 0.331 1.66v0l0.845 1.131-0.051 0.131-1.481 0.636-2.262-3.21c-0.572-0.811-1.135-1.537-1.69-2.177-0.549-0.643-0.906-1.059-1.07-1.247zM235.066 75.468c1.064 1.511 2.415 2.34 4.053 2.488 1.638 0.148 3.348-0.406 5.131-1.663v0c1.126-0.794 2.015-1.715 2.665-2.764 0.645-1.046 0.995-2.103 1.049-3.171 0.059-1.072-0.197-2.014-0.769-2.826v0c-0.32-0.454-0.861-0.899-1.624-1.335-0.772-0.438-1.611-0.778-2.516-1.02v0c-3.081 1.907-6.325 4.061-9.73 6.461v0c0.134 0.576 0.358 1.217 0.672 1.923 0.314 0.706 0.67 1.341 1.069 1.907z" fill="#000000" data-fill-palette-color="primary"></path><path d="M246.179 101.94c-0.616-1.596-0.809-3.146-0.577-4.649 0.235-1.512 0.872-2.853 1.911-4.024 1.039-1.171 2.396-2.08 4.07-2.727v0c1.724-0.666 3.499-0.9 5.325-0.702 1.82 0.2 3.434 0.781 4.841 1.742 1.41 0.968 2.403 2.198 2.979 3.69v0c0.725 1.876 0.798 3.489 0.221 4.839-0.572 1.348-1.771 2.374-3.599 3.08v0c-0.749 0.289-1.41 0.454-1.983 0.493v0l-0.66-0.323-4.114-10.653c-2.507 0.94-4.24 2.18-5.199 3.719-0.953 1.537-1.077 3.219-0.372 5.047v0c0.555 1.438 1.56 2.852 3.014 4.243v0l0.006 0.26-0.949 0.86c-1.028-0.667-2.029-1.456-3.003-2.368-0.975-0.911-1.612-1.754-1.911-2.527zM256.078 92.311l3.056 6.852c0.197 0.365 0.384 0.587 0.561 0.665 0.177 0.079 0.461 0.043 0.851-0.108v0c1.029-0.398 1.706-0.974 2.031-1.729 0.328-0.764 0.293-1.66-0.104-2.69v0c-0.468-1.212-1.28-2.092-2.437-2.639-1.154-0.541-2.473-0.658-3.958-0.351z" fill="#000000" data-fill-palette-color="primary"></path><path d="M4.84 141.04c0-6.478 5.252-11.73 11.73-11.73 6.478 0 11.73 5.252 11.73 11.73 0 6.478-5.252 11.73-11.73 11.729-6.478 0-11.73-5.252-11.73-11.729z" fill="#000000" data-fill-palette-color="primary"></path><path d="M251.42 141.04c0-6.478 5.252-11.73 11.73-11.73 6.478 0 11.73 5.252 11.73 11.73 0 6.478-5.252 11.73-11.73 11.729-6.478 0-11.73-5.252-11.73-11.729z" fill="#000000" data-fill-palette-color="primary"></path></g><g id="text-1"><path d="M16.783 185.589c-0.6-1.782-0.752-3.471-0.456-5.066 0.3-1.603 1.017-2.995 2.148-4.176 1.13-1.187 2.626-2.094 4.489-2.721v0c1.98-0.667 3.915-0.823 5.806-0.468 1.897 0.353 3.558 1.164 4.985 2.434 1.433 1.267 2.483 2.891 3.15 4.871v0c0.246 0.73 0.443 1.498 0.59 2.303 0.151 0.797 0.259 1.473 0.322 2.03 0.066 0.564 0.104 0.923 0.115 1.078v0l-0.138 0.171c-0.13 0.002-0.439 0.038-0.926 0.105-0.489 0.061-1.117 0.163-1.882 0.303-0.768 0.135-1.567 0.308-2.399 0.519v0l-0.599-1.379c0.105-0.015 0.294-0.058 0.566-0.129 0.274-0.065 0.582-0.155 0.922-0.27v0c1.838-0.619 2.266-2.386 1.284-5.3v0c-0.44-1.306-1.142-2.347-2.107-3.125-0.971-0.775-2.125-1.234-3.461-1.376-1.336-0.142-2.787 0.05-4.353 0.578v0c-1.72 0.58-3.138 1.371-4.254 2.373-1.116 1.003-1.863 2.14-2.241 3.412-0.37 1.275-0.328 2.584 0.124 3.927v0c0.455 1.349 1.2 2.304 2.236 2.864 1.038 0.567 2.423 0.769 4.153 0.606v0l0.599 1.379c-0.316 0.044-1.018 0.14-2.105 0.286-1.088 0.146-2.091 0.329-3.009 0.548v0l-0.319-0.088c-0.025 0.008-0.241-0.256-0.65-0.794-0.413-0.529-0.861-1.216-1.345-2.059-0.476-0.839-0.891-1.784-1.245-2.836z" fill="#000000" data-fill-palette-color="secondary"></path><path d="M24.22 202.755c-0.553-1.059-0.783-2.129-0.691-3.208 0.095-1.088 0.489-2.104 1.182-3.048 0.702-0.941 1.655-1.726 2.859-2.354v0c1.297-0.677 2.634-1.014 4.013-1.012 1.376-0.003 2.63 0.325 3.763 0.986 1.13 0.655 2.009 1.585 2.638 2.789v0c0.541 1.036 0.767 2.104 0.678 3.204-0.086 1.091-0.48 2.107-1.183 3.047-0.693 0.944-1.642 1.73-2.846 2.359v0c-1.297 0.677-2.634 1.014-4.013 1.011-1.376 0.003-2.63-0.325-3.763-0.986-1.133-0.661-2.012-1.59-2.637-2.788zM25.978 202.821c0.541 1.036 1.394 1.641 2.559 1.813 1.157 0.17 2.458-0.123 3.906-0.879v0c1.094-0.571 1.983-1.245 2.667-2.022 0.687-0.786 1.114-1.605 1.281-2.458 0.166-0.853 0.051-1.658-0.345-2.417v0c-0.541-1.036-1.395-1.636-2.563-1.799-1.171-0.169-2.489 0.128-3.954 0.892v0c-1.088 0.568-1.97 1.242-2.646 2.022-0.685 0.777-1.107 1.583-1.267 2.418-0.163 0.844-0.043 1.654 0.362 2.43z" fill="#000000" data-fill-palette-color="secondary"></path><path d="M37.351 220.201c0.516 0.392 0.987 0.595 1.412 0.608 0.421 0.018 0.847-0.143 1.279-0.482v0l4.946-3.739c0.821-0.646 1.315-1.317 1.483-2.013 0.168-0.705-0.006-1.386-0.523-2.043v0c-0.412-0.524-0.967-0.95-1.667-1.281-0.7-0.33-1.368-0.578-2.004-0.742v0c-3.511 2.528-5.588 4.044-6.229 4.549v0c-0.508 0.4-0.814 0.744-0.919 1.033-0.1 0.295-0.021 0.607 0.237 0.936v0c0.141 0.18 0.287 0.344 0.436 0.491 0.145 0.152 0.243 0.262 0.296 0.329v0l-0.064 0.124-1.238 0.613c-0.092-0.16-0.301-0.461-0.624-0.905-0.32-0.438-0.673-0.904-1.061-1.397v0c-0.424-0.539-0.825-1.033-1.203-1.483-0.375-0.445-0.626-0.749-0.756-0.913v0l1.124-0.647c0.422 0.441 0.805 0.675 1.15 0.703 0.344 0.037 0.748-0.127 1.21-0.49v0l6.006-4.722c0.56-0.44 0.879-0.836 0.958-1.19 0.079-0.353-0.054-0.751-0.401-1.192v0l-0.218-0.277 0.045-0.148 0.863-0.566c0.675 0.616 1.364 1.212 2.067 1.788 0.708 0.573 1.162 0.939 1.361 1.098v0l-0.077 0.298c-0.127 0.05-0.376 0.167-0.746 0.35-0.371 0.183-0.734 0.403-1.091 0.658v0l-0.04 0.106c2.696 0.862 4.27 1.581 4.722 2.156v0c0.617 0.785 0.971 1.583 1.06 2.394 0.09 0.801-0.087 1.564-0.532 2.287v0c0.89 0.255 1.844 0.581 2.861 0.977 1.017 0.396 1.688 0.8 2.011 1.21v0c0.811 1.032 1.169 2.079 1.075 3.142-0.099 1.058-0.633 1.968-1.604 2.731v0c-0.164 0.129-0.957 0.674-2.378 1.633v0c-1.809 1.206-3.053 2.076-3.73 2.609v0c-0.508 0.4-0.812 0.747-0.913 1.041-0.1 0.295-0.023 0.604 0.231 0.928v0c0.145 0.185 0.293 0.351 0.442 0.499 0.145 0.152 0.241 0.259 0.29 0.321v0l-0.058 0.132-1.238 0.613c-0.097-0.165-0.305-0.467-0.624-0.905-0.32-0.438-0.673-0.904-1.061-1.397v0c-0.335-0.426-0.727-0.882-1.175-1.368-0.449-0.486-0.745-0.805-0.89-0.957v0l1.105-0.67c0.457 0.413 0.871 0.632 1.24 0.657 0.368 0.035 0.783-0.13 1.245-0.492v0l4.952-3.732c0.821-0.646 1.313-1.319 1.477-2.021 0.168-0.705-0.006-1.386-0.523-2.043v0c-0.67-0.852-1.862-1.522-3.575-2.011v0l-6.325 4.537c-0.472 0.371-0.766 0.71-0.882 1.017-0.125 0.306-0.064 0.615 0.182 0.929v0c0.141 0.18 0.287 0.344 0.436 0.491 0.145 0.152 0.243 0.262 0.295 0.329v0l-0.063 0.125-1.214 0.642c-0.097-0.165-0.298-0.459-0.606-0.881-0.307-0.423-0.655-0.881-1.042-1.374v0c-0.335-0.426-0.759-0.881-1.274-1.366-0.514-0.485-0.851-0.797-1.011-0.937v0z" fill="#000000" data-fill-palette-color="secondary"></path><path d="M57.687 241.311c0.591 0.265 1.096 0.356 1.514 0.274 0.414-0.078 0.793-0.33 1.136-0.758v0l3.974-4.761c0.654-0.815 0.984-1.58 0.99-2.295 0.004-0.725-0.319-1.349-0.971-1.873v0c-0.519-0.417-1.157-0.707-1.914-0.871-0.756-0.164-1.463-0.254-2.119-0.27v0c-2.849 3.256-4.53 5.202-5.041 5.838v0c-0.405 0.504-0.625 0.909-0.662 1.215-0.031 0.31 0.116 0.596 0.442 0.857v0c0.178 0.143 0.357 0.27 0.537 0.381 0.175 0.116 0.296 0.2 0.362 0.253v0l-0.034 0.136-1.068 0.876c-0.126-0.135-0.397-0.382-0.813-0.741-0.41-0.355-0.86-0.728-1.348-1.12v0c-0.535-0.429-1.037-0.82-1.508-1.173-0.465-0.349-0.78-0.588-0.942-0.72v0l0.949-0.884c0.51 0.334 0.937 0.476 1.279 0.425 0.344-0.042 0.7-0.292 1.068-0.75v0l4.784-5.957c0.446-0.555 0.667-1.013 0.665-1.375-0.002-0.362-0.222-0.719-0.661-1.071v0l-0.275-0.221 0.011-0.154 0.713-0.747c0.797 0.447 1.602 0.872 2.418 1.276 0.819 0.398 1.344 0.652 1.574 0.762v0l-0.009 0.307c-0.112 0.077-0.328 0.247-0.648 0.51-0.32 0.262-0.624 0.558-0.913 0.887v0l-0.016 0.113c2.821 0.231 4.517 0.575 5.088 1.033v0c0.779 0.626 1.303 1.323 1.573 2.093 0.269 0.76 0.268 1.543-0.002 2.348v0c0.925 0.048 1.928 0.15 3.009 0.305 1.081 0.156 1.825 0.398 2.231 0.725v0c1.023 0.822 1.609 1.761 1.757 2.818 0.143 1.053-0.172 2.06-0.945 3.022v0c-0.131 0.163-0.78 0.872-1.948 2.129v0c-1.49 1.584-2.505 2.712-3.044 3.384v0c-0.405 0.504-0.623 0.911-0.654 1.221-0.031 0.31 0.114 0.594 0.434 0.851v0c0.183 0.147 0.365 0.276 0.544 0.386 0.175 0.116 0.293 0.198 0.354 0.247v0l-0.026 0.143-1.068 0.876c-0.131-0.139-0.402-0.386-0.812-0.741-0.41-0.355-0.86-0.728-1.349-1.121v0c-0.423-0.339-0.907-0.695-1.454-1.067-0.547-0.372-0.908-0.616-1.083-0.732v0l0.925-0.902c0.539 0.299 0.991 0.419 1.357 0.361 0.366-0.049 0.733-0.303 1.101-0.762v0l3.981-4.754c0.654-0.815 0.982-1.582 0.982-2.302 0.004-0.725-0.319-1.349-0.971-1.872v0c-0.845-0.679-2.157-1.063-3.936-1.152v0l-5.137 5.849c-0.376 0.468-0.586 0.865-0.63 1.19-0.053 0.326 0.076 0.614 0.387 0.864v0c0.178 0.143 0.357 0.27 0.536 0.38 0.175 0.116 0.296 0.2 0.362 0.253v0l-0.033 0.136-1.038 0.901c-0.131-0.139-0.394-0.38-0.789-0.722-0.395-0.342-0.837-0.71-1.326-1.103v0c-0.423-0.339-0.939-0.687-1.549-1.043-0.61-0.356-1.009-0.584-1.196-0.684v0z" fill="#000000" data-fill-palette-color="secondary"></path><path d="M80.024 245.251c0.523-1.001 0.443-1.68-0.24-2.037v0c-0.133-0.07-0.28-0.128-0.439-0.174-0.166-0.05-0.27-0.075-0.315-0.076v0l0.64-0.97c0.781 0.268 1.64 0.521 2.575 0.759 0.933 0.244 1.545 0.405 1.836 0.484v0l-0.007 0.416c-0.439 0.39-1.178 1.396-2.217 3.019-1.033 1.626-1.97 3.244-2.81 4.853v0c-0.949 1.817-0.683 3.113 0.799 3.887v0c0.556 0.29 1.145 0.425 1.767 0.403 0.619-0.015 1.427-0.095 2.423-0.238v0l3.363-6.442c0.29-0.556 0.388-0.998 0.295-1.327-0.088-0.326-0.389-0.623-0.904-0.892v0l-0.682-0.323 0.634-0.939c0.868 0.313 1.796 0.61 2.784 0.89 0.982 0.277 1.619 0.455 1.909 0.532v0l-0.007 0.417c-0.386 0.344-1.132 1.427-2.239 3.25-1.107 1.823-2.24 3.847-3.401 6.07v0c-0.215 0.411-0.278 0.779-0.19 1.105 0.088 0.326 0.308 0.581 0.661 0.765v0c0.26 0.136 0.541 0.22 0.841 0.251 0.303 0.026 0.565 0.026 0.784 0.001 0.214-0.028 0.348-0.054 0.405-0.076v0l0.155 0.655c-0.133 0.071-0.423 0.21-0.871 0.418-0.456 0.211-0.952 0.391-1.485 0.54-0.531 0.143-0.936 0.141-1.214-0.004v0c-1.499-0.783-1.933-1.963-1.3-3.541v0l-0.112-0.125c-1.248 0.218-2.34 0.355-3.275 0.412-0.933 0.051-1.529 0.008-1.79-0.128v0c-1.181-0.617-1.947-1.37-2.3-2.261-0.347-0.888-0.249-1.85 0.292-2.887v0z" fill="#000000" data-fill-palette-color="secondary"></path><path d="M100.357 265.04c0.646 0.049 1.148-0.037 1.507-0.259 0.363-0.213 0.634-0.58 0.813-1.098v0l2.136-5.822c0.34-0.988 0.388-1.821 0.144-2.498-0.241-0.684-0.757-1.161-1.548-1.433v0c-0.63-0.216-1.328-0.274-2.095-0.171-0.761 0.104-1.453 0.26-2.077 0.467v0c-1.584 4.026-2.509 6.425-2.774 7.197v0c-0.21 0.611-0.277 1.068-0.202 1.37 0.069 0.3 0.302 0.518 0.697 0.654v0c0.216 0.074 0.427 0.133 0.633 0.176 0.204 0.049 0.346 0.088 0.427 0.116v0l0.023 0.143-0.708 1.185c-0.171-0.086-0.509-0.227-1.015-0.421-0.506-0.195-1.056-0.394-1.648-0.598v0c-0.513-0.176-1.089-0.347-1.73-0.511-0.641-0.165-1.063-0.272-1.267-0.322v0l0.565-1.162c0.608 0.099 1.074 0.059 1.398-0.121 0.328-0.17 0.587-0.533 0.779-1.089v0l2.483-7.225c0.231-0.673 0.282-1.181 0.15-1.522-0.125-0.34-0.453-0.601-0.983-0.784v0l-0.325-0.111-0.051-0.152 0.427-0.941c0.895 0.149 1.794 0.275 2.698 0.378 0.906 0.097 1.485 0.158 1.739 0.184v0l0.105 0.295c-0.086 0.109-0.234 0.341-0.446 0.696-0.206 0.357-0.392 0.739-0.559 1.144v0l0.033 0.115c2.764-0.728 4.473-0.979 5.127-0.755v0c1.247 0.429 2.117 1.114 2.608 2.056 0.491 0.942 0.536 1.997 0.134 3.164v0c-0.068 0.198-0.439 1.085-1.112 2.663v0c-0.865 1.995-1.438 3.4-1.718 4.215v0c-0.195 0.568-0.258 1.013-0.189 1.333 0.067 0.327 0.286 0.554 0.657 0.682v0c0.222 0.076 0.436 0.136 0.642 0.179 0.204 0.049 0.343 0.087 0.417 0.112v0l0.024 0.143-0.68 1.195c-0.171-0.086-0.5-0.224-0.988-0.411-0.488-0.188-1.028-0.384-1.62-0.589v0c-0.513-0.176-1.116-0.328-1.811-0.456-0.695-0.128-1.147-0.208-1.358-0.239v0z" fill="#000000" data-fill-palette-color="secondary"></path><path d="M110.688 269.381l0.394-1.228c0.641-0.03 1.129-0.175 1.466-0.437 0.335-0.255 0.56-0.651 0.675-1.188v0l1.666-7.776c0.237-1.105-0.025-1.738-0.785-1.901v0c-0.14-0.03-0.297-0.047-0.47-0.051-0.166-0.002-0.274 0.001-0.323 0.011v0l0.367-1.103c0.882 0.062 1.801 0.089 2.757 0.08 0.95-0.01 1.567-0.018 1.849-0.025v0l0.075 0.397c-0.278 0.394-0.725 1.671-1.341 3.829-0.611 2.166-1.175 4.456-1.692 6.87v0c-0.126 0.587-0.135 1.036-0.028 1.346 0.099 0.315 0.344 0.514 0.733 0.598v0c0.223 0.048 0.44 0.081 0.65 0.099 0.208 0.025 0.354 0.046 0.437 0.064v0l0.031 0.136-0.523 1.271c-0.18-0.065-0.523-0.162-1.029-0.291-0.507-0.129-1.066-0.259-1.68-0.39v0c-0.53-0.114-1.147-0.192-1.852-0.236-0.705-0.044-1.164-0.069-1.377-0.075zM117.276 251.771c-0.466-0.1-0.8-0.332-1.003-0.696-0.203-0.364-0.257-0.763-0.164-1.197v0c0.104-0.485 0.37-0.869 0.797-1.152 0.421-0.284 0.887-0.371 1.399-0.261v0c0.472 0.101 0.807 0.333 1.003 0.696 0.203 0.364 0.258 0.76 0.166 1.187v0c-0.105 0.492-0.369 0.879-0.79 1.163-0.428 0.282-0.897 0.369-1.408 0.26z" fill="#000000" data-fill-palette-color="secondary"></path><path d="M127.127 272.008c-1.415-0.159-2.379-0.556-2.892-1.192-0.52-0.637-0.703-1.64-0.549-3.008v0l0.859-7.651c0.063-0.565-0.015-0.974-0.236-1.229-0.221-0.255-0.674-0.431-1.36-0.527v0l-0.106-0.199 0.261-0.917c0.636-0.224 1.264-0.518 1.883-0.883 0.618-0.358 1.128-0.678 1.527-0.962 0.399-0.277 0.656-0.462 0.772-0.554v0l0.595 0.314c-0.031 0.102-0.092 0.348-0.181 0.738-0.083 0.391-0.195 0.914-0.334 1.569v0l4.586 0.417 0.086 0.108-0.467 1.613-4.506-0.595c-0.399 2.268-0.762 4.852-1.088 7.753v0c-0.12 1.064-0.022 1.834 0.292 2.31 0.315 0.476 0.916 0.763 1.806 0.863v0c0.311 0.035 0.628 0.028 0.948-0.021 0.321-0.049 0.59-0.108 0.809-0.176 0.218-0.068 0.361-0.111 0.428-0.129v0l0.221 0.843c-0.135 0.09-0.423 0.258-0.865 0.504-0.435 0.247-0.902 0.483-1.401 0.71-0.499 0.227-0.861 0.327-1.088 0.301z" fill="#000000" data-fill-palette-color="secondary"></path><path d="M135.106 279.72c-0.163 0.002-0.437-0.241-0.82-0.727-0.384-0.493-0.576-0.843-0.579-1.052v0l0.155-0.217c1.175-0.012 2.264-0.509 3.267-1.492 1.003-0.976 1.861-2.346 2.575-4.109v0c-1.663-5.077-2.997-8.907-4.002-11.49v0c-0.194-0.52-0.463-0.893-0.804-1.118-0.348-0.225-0.794-0.345-1.336-0.359v0l-0.07-0.127 0.176-1.04 2.606 0.004c0.77-0.008 1.537-0.044 2.3-0.111 0.763-0.073 1.249-0.12 1.458-0.142v0l0.061 0.156-0.177 0.972c-0.712 0.027-1.187 0.1-1.428 0.22-0.234 0.12-0.349 0.323-0.346 0.61v0c0.003 0.333 0.214 1.199 0.632 2.6 0.419 1.393 0.853 2.783 1.305 4.169 0.458 1.38 0.76 2.278 0.908 2.695v0l0.127-0.002c2.346-5.763 3.517-8.896 3.513-9.398v0c-0.005-0.542-0.406-0.809-1.203-0.801v0l-1.44 0.014-0.06-0.127 0.176-1.03c0.19 0.018 0.608 0.04 1.254 0.066 0.647 0.02 1.293 0.026 1.94 0.02v0l2.664-0.055-0.214 1.167c-0.456 0.083-0.804 0.246-1.043 0.49-0.233 0.244-0.463 0.68-0.693 1.31v0l-3.883 9.559c-1.058 2.642-1.927 4.603-2.606 5.883-0.673 1.28-1.343 2.181-2.011 2.703-0.661 0.516-1.462 0.769-2.402 0.759z" fill="#000000" data-fill-palette-color="secondary"></path><path d="M169.319 268.961c-1.649 0.377-3.206 0.318-4.672-0.177-1.461-0.503-2.713-1.392-3.755-2.668-1.04-1.269-1.77-2.82-2.19-4.653v0c-0.456-1.992-0.429-3.911 0.08-5.756 0.511-1.838 1.428-3.408 2.751-4.708 1.317-1.299 2.902-2.161 4.755-2.585v0c1.693-0.387 3.28-0.332 4.76 0.168 1.487 0.497 2.759 1.375 3.818 2.633 1.058 1.258 1.796 2.801 2.213 4.628v0c0.457 1.999 0.422 3.926-0.104 5.781-0.527 1.855-1.462 3.436-2.804 4.741-1.344 1.299-2.961 2.164-4.852 2.596zM169.908 267.189c1.279-0.293 2.342-0.887 3.189-1.784 0.845-0.903 1.404-2.019 1.676-3.348 0.28-1.323 0.243-2.758-0.11-4.305v0c-0.396-1.731-1.043-3.198-1.941-4.399-0.896-1.195-1.955-2.048-3.177-2.559-1.217-0.519-2.51-0.622-3.879-0.308v0c-1.241 0.284-2.268 0.874-3.082 1.769-0.815 0.89-1.352 1.997-1.611 3.323-0.266 1.327-0.222 2.764 0.132 4.31v0c0.396 1.731 1.033 3.197 1.91 4.396 0.872 1.207 1.91 2.068 3.112 2.584 1.197 0.517 2.457 0.624 3.781 0.321z" fill="#000000" data-fill-palette-color="secondary"></path><path d="M184.869 263.056c0.558-0.293 0.87-0.639 0.936-1.037 0.068-0.393-0.08-1.047-0.445-1.963v0l-2.55-6.396c-0.256-0.643-0.527-1.066-0.812-1.269-0.282-0.197-0.618-0.218-1.005-0.063v0c-0.158 0.063-0.284 0.124-0.381 0.184-0.102 0.062-0.167 0.109-0.196 0.141v0l-0.226-0.142-0.268-0.937c0.678-0.432 1.391-0.91 2.139-1.432 0.748-0.523 1.226-0.858 1.434-1.005v0l0.278 0.09c0.028 0.193 0.128 0.62 0.301 1.282 0.179 0.66 0.388 1.265 0.629 1.816v0l0.154 0.044c0.22-1.142 0.604-2.16 1.155-3.054 0.556-0.897 1.126-1.461 1.708-1.693v0c0.267-0.106 0.479-0.173 0.637-0.201 0.155-0.034 0.259-0.047 0.311-0.04v0l0.125 0.076c0.072 0.287 0.221 0.899 0.448 1.836 0.223 0.93 0.473 1.769 0.75 2.516v0l-1.105 0.536c-0.317-0.795-0.579-1.302-0.786-1.522-0.213-0.217-0.474-0.264-0.783-0.141v0c-0.425 0.169-0.808 0.53-1.151 1.081-0.343 0.551-0.597 1.208-0.764 1.971v0c0.201 0.574 0.532 1.521 0.995 2.84 0.459 1.328 0.838 2.393 1.137 3.195v0c0.264 0.661 0.538 1.068 0.824 1.222 0.286 0.153 0.702 0.121 1.248-0.097v0c0.249-0.099 0.497-0.209 0.744-0.329 0.241-0.117 0.411-0.195 0.508-0.234v0l0.083 0.104 0.244 1.379c-0.194 0.077-0.586 0.223-1.175 0.437-0.59 0.214-1.194 0.444-1.813 0.691v0c-0.722 0.288-1.368 0.563-1.937 0.825-0.57 0.262-0.927 0.433-1.072 0.512v0z" fill="#000000" data-fill-palette-color="secondary"></path><path d="M203.883 255.853c-1.747 0.943-3.444 1.146-5.091 0.61-1.638-0.533-2.958-1.728-3.96-3.583v0c-0.707-1.31-1.069-2.654-1.086-4.033-0.023-1.375 0.283-2.631 0.917-3.767 0.633-1.136 1.548-2.026 2.743-2.671v0c0.511-0.276 1.029-0.507 1.551-0.693 0.517-0.183 0.95-0.316 1.298-0.4 0.342-0.081 0.562-0.121 0.658-0.121v0l0.189 0.143c0.032 0.101 0.097 0.345 0.193 0.73 0.103 0.382 0.26 0.88 0.472 1.493 0.212 0.613 0.483 1.246 0.813 1.898v0l-1.095 0.692-0.461-0.854c-0.366-0.678-0.867-1.112-1.505-1.302-0.631-0.194-1.289-0.106-1.972 0.263v0c-1.12 0.605-1.767 1.469-1.939 2.594-0.178 1.127 0.13 2.427 0.924 3.898v0c0.862 1.597 1.881 2.68 3.055 3.248 1.166 0.565 2.329 0.535 3.49-0.092v0c0.46-0.248 0.882-0.565 1.268-0.951 0.385-0.386 0.696-0.732 0.931-1.038 0.242-0.308 0.383-0.507 0.424-0.596v0l0.2-0.041 0.763 0.69c-0.083 0.163-0.26 0.508-0.533 1.034-0.273 0.526-0.616 1.078-1.031 1.658-0.408 0.577-0.814 0.974-1.216 1.191z" fill="#000000" data-fill-palette-color="secondary"></path><path d="M211.272 249.51c0.454-0.407 0.7-0.783 0.739-1.128 0.047-0.343-0.103-0.751-0.452-1.224v0l-9.878-13.417c-0.333-0.452-0.653-0.727-0.96-0.825-0.302-0.102-0.614-0.035-0.934 0.201v0l-0.529 0.389-0.16-0.003-0.49-0.88c0.518-0.486 1.087-1.068 1.708-1.744 0.617-0.681 1.111-1.26 1.482-1.736v0l0.388 0.213c0.024 0.274 0.575 1.259 1.653 2.955 1.078 1.696 2.451 3.742 4.118 6.139v0c0.95-2.718 1.727-4.3 2.332-4.746v0c1.094-0.805 2.154-1.144 3.181-1.016 1.023 0.123 1.914 0.699 2.672 1.73v0c0.248 0.337 0.759 1.152 1.534 2.447v0c1.295 2.079 2.117 3.355 2.466 3.828v0c0.356 0.484 0.686 0.788 0.989 0.913 0.302 0.135 0.613 0.084 0.934-0.152v0l0.843-0.705 0.13 0.061 0.597 1.24c-1.148 0.764-1.917 1.29-2.306 1.576v0c-0.673 0.496-1.464 1.232-2.375 2.21v0l-0.658-1.108c0.408-0.503 0.623-0.965 0.645-1.388 0.031-0.42-0.116-0.851-0.441-1.293v0l-3.526-5.103c-0.619-0.841-1.277-1.355-1.973-1.539-0.7-0.19-1.383-0.04-2.051 0.452v0c-0.421 0.31-0.838 0.828-1.252 1.554-0.418 0.721-0.73 1.454-0.936 2.198v0c1.343 1.923 2.825 3.985 4.447 6.188v0c0.383 0.521 0.718 0.838 1.004 0.951 0.292 0.11 0.606 0.041 0.942-0.207v0l0.843-0.705 0.123 0.067 0.573 1.257c-1.196 0.799-1.98 1.336-2.354 1.611v0c-0.72 0.53-1.54 1.158-2.457 1.882v0z" fill="#000000" data-fill-palette-color="secondary"></path><path d="M232.549 234.058c-0.93 0.908-1.953 1.504-3.069 1.79-1.121 0.291-2.243 0.25-3.365-0.124-1.127-0.379-2.162-1.052-3.106-2.019v0c-0.98-1.005-1.67-2.17-2.069-3.495-0.409-1.326-0.487-2.622-0.237-3.889 0.251-1.267 0.811-2.324 1.681-3.172v0c1.089-1.063 2.187-1.596 3.295-1.601 1.113 0 2.187 0.53 3.222 1.591v0c0.42 0.43 0.729 0.84 0.927 1.23v0l-0.02 0.554-6.19 6.04c1.4 1.462 2.777 2.299 4.132 2.509 1.355 0.211 2.565-0.204 3.631-1.243v0c0.837-0.816 1.522-1.937 2.056-3.362v0l0.174-0.088 0.882 0.412c-0.159 0.912-0.41 1.842-0.754 2.789-0.344 0.947-0.74 1.639-1.19 2.078zM222.902 230.047l3.86-4.164c0.192-0.252 0.289-0.451 0.291-0.599 0.002-0.148-0.107-0.334-0.325-0.558v0c-0.584-0.598-1.19-0.896-1.818-0.895-0.628 0.002-1.241 0.294-1.839 0.878v0c-0.701 0.684-1.069 1.508-1.104 2.473-0.03 0.969 0.281 1.924 0.935 2.865z" fill="#000000" data-fill-palette-color="secondary"></path><path d="M242.271 223.18c-0.417 0.52-0.834 0.967-1.253 1.343-0.418 0.376-0.767 0.653-1.044 0.832-0.278 0.179-0.461 0.288-0.55 0.326v0l-0.223-0.066c-0.208-0.242-0.667-0.702-1.378-1.382-0.716-0.683-1.272-1.195-1.667-1.537v0l0.563-0.954c1.075 0.862 1.977 1.292 2.707 1.291 0.728-0.01 1.437-0.446 2.127-1.307v0c0.498-0.622 0.779-1.254 0.843-1.898 0.059-0.647-0.116-1.135-0.523-1.461v0c-0.408-0.327-0.93-0.432-1.567-0.315-0.643 0.113-1.716 0.491-3.22 1.134v0c-1.217 0.547-2.24 0.836-3.068 0.867-0.828 0.031-1.535-0.189-2.121-0.658v0c-0.652-0.523-1.088-1.19-1.307-2.002-0.215-0.817-0.2-1.687 0.047-2.611 0.251-0.929 0.715-1.816 1.393-2.662v0c0.315-0.392 0.643-0.744 0.985-1.056 0.342-0.312 0.638-0.556 0.888-0.732 0.25-0.176 0.409-0.291 0.478-0.345v0l0.159 0.052c0.139 0.161 0.451 0.533 0.938 1.116 0.486 0.574 1.042 1.153 1.668 1.74v0l-0.646 0.963c-0.051-0.041-0.142-0.126-0.272-0.256-0.131-0.139-0.263-0.261-0.396-0.367v0c-0.586-0.47-1.142-0.652-1.67-0.548-0.518 0.103-1.059 0.507-1.622 1.21v0c-0.441 0.55-0.687 1.123-0.738 1.718-0.047 0.59 0.116 1.035 0.488 1.333v0c0.392 0.315 0.894 0.44 1.505 0.378 0.612-0.053 1.412-0.299 2.399-0.738v0c1.761-0.756 3.075-1.184 3.942-1.284 0.863-0.095 1.605 0.107 2.226 0.605v0c0.622 0.498 1.036 1.166 1.245 2.002 0.213 0.841 0.2 1.734-0.04 2.68-0.24 0.946-0.672 1.809-1.296 2.589z" fill="#000000" data-fill-palette-color="secondary"></path><path d="M251.745 209.603c-0.755 1.207-1.531 1.904-2.326 2.091-0.799 0.193-1.782-0.076-2.95-0.806v0l-6.525-4.085c-0.482-0.301-0.885-0.408-1.211-0.318-0.325 0.089-0.68 0.422-1.063 0.998v0l-0.226 0.009-0.714-0.632c0.073-0.671 0.079-1.364 0.019-2.079-0.055-0.712-0.124-1.31-0.206-1.794-0.077-0.48-0.132-0.792-0.166-0.935v0l0.541-0.401c0.078 0.072 0.274 0.233 0.587 0.483 0.317 0.245 0.74 0.571 1.27 0.98v0l2.359-3.955 0.135-0.031 1.253 1.119-2.486 3.806c1.872 1.341 4.045 2.786 6.519 4.335v0c0.908 0.568 1.644 0.813 2.209 0.735 0.565-0.078 1.085-0.496 1.559-1.254v0c0.166-0.266 0.297-0.554 0.391-0.865 0.094-0.311 0.158-0.579 0.192-0.804 0.033-0.226 0.056-0.373 0.068-0.442v0l0.856 0.165c0.023 0.161 0.05 0.493 0.08 0.998 0.034 0.499 0.046 1.022 0.034 1.57-0.011 0.547-0.078 0.918-0.199 1.112z" fill="#000000" data-fill-palette-color="secondary"></path><path d="M254.578 201.529c0.218-0.591 0.217-1.057-0.001-1.397-0.213-0.337-0.762-0.723-1.647-1.157v0l-6.181-3.034c-0.621-0.305-1.106-0.437-1.453-0.397-0.341 0.043-0.604 0.253-0.788 0.628v0c-0.075 0.152-0.128 0.283-0.159 0.391-0.034 0.114-0.051 0.193-0.051 0.237v0l-0.263 0.045-0.827-0.515c0.213-0.775 0.422-1.608 0.626-2.497 0.204-0.889 0.334-1.458 0.39-1.707v0l0.266-0.12c0.15 0.124 0.511 0.374 1.083 0.75 0.575 0.37 1.137 0.678 1.685 0.925v0l0.144-0.071c-0.603-0.994-1-2.008-1.192-3.04-0.189-1.038-0.145-1.839 0.131-2.401v0c0.127-0.258 0.239-0.45 0.338-0.577 0.092-0.129 0.161-0.209 0.204-0.238v0l0.144-0.027c0.247 0.165 0.767 0.519 1.563 1.062 0.79 0.54 1.538 0.995 2.244 1.363v0l-0.46 1.138c-0.768-0.377-1.302-0.577-1.604-0.602-0.304-0.018-0.529 0.122-0.675 0.421v0c-0.201 0.41-0.244 0.935-0.129 1.574 0.116 0.639 0.367 1.297 0.755 1.974v0c0.534 0.291 1.415 0.771 2.643 1.439 1.231 0.677 2.227 1.213 2.986 1.608v0c0.639 0.314 1.116 0.431 1.431 0.353 0.315-0.078 0.602-0.381 0.86-0.909v0c0.118-0.24 0.229-0.488 0.332-0.742 0.1-0.249 0.174-0.42 0.22-0.515v0l0.131 0.021 1.106 0.86c-0.092 0.188-0.285 0.558-0.579 1.112-0.294 0.554-0.587 1.13-0.88 1.728v0c-0.342 0.698-0.637 1.335-0.884 1.912-0.247 0.577-0.398 0.943-0.452 1.098v0z" fill="#000000" data-fill-palette-color="secondary"></path><path d="M265.108 179.592c-0.552 1.599-1.654 2.203-3.309 1.812v0l-0.069 0.11c0.465 0.955 0.804 1.794 1.017 2.517 0.217 0.731 0.276 1.242 0.176 1.532v0c-0.383 1.111-1.043 1.902-1.979 2.373-0.936 0.471-1.938 0.523-3.006 0.155v0c-0.574-0.198-1.027-0.517-1.359-0.956-0.334-0.433-0.49-0.912-0.469-1.436v0l0.402-6.151-1.292-0.487c-0.988-0.341-1.835-0.378-2.542-0.11-0.713 0.265-1.212 0.811-1.498 1.638v0c-0.19 0.549-0.261 1.177-0.215 1.884 0.042 0.698 0.199 1.426 0.47 2.183v0l-0.144 0.116-1.39-0.086c-0.211-1.109-0.368-2.206-0.47-3.291-0.102-1.085-0.082-1.835 0.061-2.248v0c0.443-1.284 1.127-2.174 2.05-2.671 0.92-0.505 1.985-0.548 3.195-0.13v0c0.432 0.149 1.293 0.526 2.584 1.129v0c2.098 0.966 3.444 1.551 4.036 1.756v0c0.438 0.151 0.812 0.159 1.121 0.024 0.311-0.141 0.531-0.397 0.659-0.768v0c0.111-0.321 0.15-0.674 0.116-1.058-0.033-0.384-0.114-0.709-0.244-0.975v0l0.626-0.25c0.385 0.465 0.733 1.009 1.042 1.634 0.303 0.623 0.447 1.208 0.431 1.754zM261.077 184.366c0.13-0.377 0.148-0.861 0.056-1.452-0.091-0.598-0.272-1.175-0.543-1.731v0l-2.976-1.192-0.177 4.446c-0.019 0.636 0.299 1.067 0.953 1.292v0c0.574 0.198 1.113 0.167 1.618-0.095 0.509-0.253 0.865-0.675 1.069-1.268z" fill="#000000" data-fill-palette-color="secondary"></path></g></svg></g></svg></g></svg></g></svg></g><defs></defs></svg><rect width="279.72" height="279.72" fill="none" stroke="none" visibility="hidden"></rect></g></svg></g></svg>